<svg xmlns="http://www.w3.org/2000/svg" viewBox="1.50322 1.49464 21.02 21.01">
  <path d="M 12.003 2.001 a 9.705 9.705 0 1 1 0 19.4 a 10.876 10.876 0 0 1 -2.895 -0.384 a 0.798 0.798 0 0 0 -0.533 0.04 l -1.984 0.876 a 0.801 0.801 0 0 1 -1.123 -0.708 l -0.054 -1.78 a 0.806 0.806 0 0 0 -0.27 -0.569 a 9.49 9.49 0 0 1 -3.14 -7.175 a 9.65 9.65 0 0 1 10 -9.7 Z

M 17.79 10.132 a 0.659 0.659 0 0 0 -0.962 -0.873 l -2.556 2.05 a 0.63 0.63 0 0 1 -0.758 0.002 L 11.06 9.47 a 1.576 1.576 0 0 0 -2.277 0.42 l -2.567 3.98 a 0.659 0.659 0 0 0 0.961 0.875 l 2.556 -2.049 a 0.63 0.63 0 0 1 0.759 -0.002 l 2.452 1.84 a 1.576 1.576 0 0 0 2.278 -0.42 Z" stroke="#262626" stroke-width="0" fill="#000"/>
</svg>